<?xml version="1.0" encoding="UTF-8"?>
<svg xmlns="http://www.w3.org/2000/svg" xmlns:xlink="http://www.w3.org/1999/xlink" width="300" height="200" viewBox="0 0 300 200">
<path fill-rule="nonzero" fill="rgb(0%, 0%, 0%)" fill-opacity="1" d="M 100 50 L 200 50 L 200 150 L 100 150 Z M 100 50 "/>
<path fill-rule="nonzero" fill="rgb(100%, 75.294118%, 79.607843%)" fill-opacity="1" d="M 128.351562 119.445312 C 128.40625 120.421875 128.636719 121.214844 129.042969 121.824219 C 129.816406 122.964844 131.179688 123.535156 133.132812 123.535156 C 134.007812 123.535156 134.804688 123.410156 135.523438 123.160156 C 136.914062 122.675781 137.609375 121.808594 137.609375 120.558594 C 137.609375 119.621094 137.316406 118.953125 136.730469 118.554688 C 136.136719 118.164062 135.207031 117.824219 133.941406 117.535156 L 131.609375 117.007812 C 130.085938 116.664062 129.007812 116.285156 128.375 115.871094 C 127.28125 115.152344 126.734375 114.078125 126.734375 112.648438 C 126.734375 111.101562 127.269531 109.832031 128.339844 108.839844 C 129.410156 107.847656 130.925781 107.351562 132.886719 107.351562 C 134.691406 107.351562 136.226562 107.789062 137.484375 108.65625 C 138.746094 109.527344 139.378906 110.921875 139.378906 112.835938 L 137.1875 112.835938 C 137.070312 111.914062 136.820312 111.207031 136.4375 110.714844 C 135.726562 109.816406 134.519531 109.367188 132.816406 109.367188 C 131.441406 109.367188 130.453125 109.65625 129.851562 110.234375 C 129.25 110.8125 128.949219 111.484375 128.949219 112.25 C 128.949219 113.09375 129.300781 113.710938 130.003906 114.101562 C 130.464844 114.351562 131.507812 114.664062 133.132812 115.039062 L 135.546875 115.589844 C 136.710938 115.855469 137.609375 116.21875 138.242188 116.679688 C 139.335938 117.484375 139.882812 118.652344 139.882812 120.183594 C 139.882812 122.089844 139.1875 123.453125 137.804688 124.273438 C 136.417969 125.09375 134.804688 125.503906 132.96875 125.503906 C 130.828125 125.503906 129.152344 124.957031 127.941406 123.863281 C 126.730469 122.777344 126.136719 121.304688 126.160156 119.445312 Z M 150.839844 115.671875 C 151.933594 115.671875 152.796875 115.453125 153.4375 115.015625 C 154.074219 114.578125 154.390625 113.789062 154.390625 112.648438 C 154.390625 111.421875 153.945312 110.585938 153.054688 110.140625 C 152.578125 109.90625 151.941406 109.789062 151.144531 109.789062 L 145.449219 109.789062 L 145.449219 115.671875 Z M 143.117188 107.785156 L 151.085938 107.785156 C 152.398438 107.785156 153.480469 107.976562 154.332031 108.359375 C 155.949219 109.09375 156.757812 110.449219 156.757812 112.425781 C 156.757812 113.457031 156.546875 114.300781 156.117188 114.957031 C 155.691406 115.613281 155.097656 116.140625 154.332031 116.539062 C 155.003906 116.8125 155.507812 117.171875 155.851562 117.617188 C 156.191406 118.0625 156.378906 118.785156 156.417969 119.785156 L 156.5 122.09375 C 156.523438 122.75 156.578125 123.238281 156.664062 123.558594 C 156.804688 124.105469 157.054688 124.457031 157.414062 124.613281 L 157.414062 125 L 154.554688 125 C 154.476562 124.851562 154.414062 124.660156 154.367188 124.425781 C 154.320312 124.191406 154.28125 123.738281 154.25 123.066406 L 154.109375 120.195312 C 154.054688 119.070312 153.636719 118.316406 152.855469 117.933594 C 152.410156 117.722656 151.710938 117.617188 150.757812 117.617188 L 145.449219 117.617188 L 145.449219 125 L 143.117188 125 Z M 160.167969 107.785156 L 162.441406 107.785156 L 162.441406 116.175781 L 170.832031 107.785156 L 174.054688 107.785156 L 166.894531 114.722656 L 174.253906 125 L 171.21875 125 L 165.195312 116.363281 L 162.441406 119 L 162.441406 125 L 160.167969 125 Z M 125 106.519531 "/>
</svg>
