<?xml version="1.0" encoding="UTF-8"?>
<svg xmlns="http://www.w3.org/2000/svg" xmlns:xlink="http://www.w3.org/1999/xlink" width="300" height="200" viewBox="0 0 300 200">
<path fill-rule="nonzero" fill="rgb(100%, 100%, 0%)" fill-opacity="1" d="M 200 100 C 200 72.386719 177.613281 50 150 50 C 122.386719 50 100 72.386719 100 100 C 100 127.613281 122.386719 150 150 150 C 177.613281 150 200 127.613281 200 100 "/>
<path fill-rule="nonzero" fill="rgb(100%, 64.705882%, 0%)" fill-opacity="1" d="M 129.050781 107.785156 L 141.601562 107.785156 L 141.601562 109.894531 L 131.324219 109.894531 L 131.324219 115.121094 L 140.828125 115.121094 L 140.828125 117.113281 L 131.324219 117.113281 L 131.324219 122.949219 L 141.777344 122.949219 L 141.777344 125 L 129.050781 125 Z M 143.558594 123.066406 L 154.117188 109.835938 L 144.332031 109.835938 L 144.332031 107.785156 L 157.117188 107.785156 L 157.117188 109.789062 L 146.5 122.949219 L 157.117188 122.949219 L 157.117188 125 L 143.558594 125 Z M 158.160156 107.785156 L 160.878906 107.785156 L 165.824219 116.058594 L 170.769531 107.785156 L 173.5 107.785156 L 166.996094 118.0625 L 166.996094 125 L 164.664062 125 L 164.664062 118.0625 Z M 127 106.519531 "/>
</svg>
