<?xml version="1.0" encoding="UTF-8"?>
<svg xmlns="http://www.w3.org/2000/svg" xmlns:xlink="http://www.w3.org/1999/xlink" width="300" height="200" viewBox="0 0 300 200">
<path fill-rule="nonzero" fill="rgb(0%, 0%, 0%)" fill-opacity="1" d="M 200 100 C 200 72.386719 177.613281 50 150 50 C 122.386719 50 100 72.386719 100 100 C 100 127.613281 122.386719 150 150 150 C 177.613281 150 200 127.613281 200 100 "/>
<path fill-rule="nonzero" fill="rgb(100%, 0%, 0%)" fill-opacity="1" d="M 136.277344 119.867188 C 136.277344 121.320312 136.0625 122.449219 135.632812 123.253906 C 134.835938 124.722656 133.320312 125.457031 131.085938 125.457031 C 129.796875 125.457031 128.695312 125.109375 127.78125 124.40625 C 126.867188 123.707031 126.410156 122.464844 126.410156 120.675781 L 126.410156 119.445312 L 128.601562 119.445312 L 128.601562 120.675781 C 128.601562 121.613281 128.8125 122.320312 129.226562 122.789062 C 129.644531 123.261719 130.296875 123.5 131.179688 123.5 C 132.421875 123.5 133.234375 123.074219 133.617188 122.222656 C 133.851562 121.699219 133.96875 120.710938 133.96875 119.257812 L 133.96875 107.785156 L 136.277344 107.785156 Z M 140.050781 107.785156 L 147.796875 107.785156 C 149.328125 107.785156 150.5625 108.21875 151.5 109.078125 C 152.4375 109.941406 152.90625 111.15625 152.90625 112.71875 C 152.90625 114.0625 152.488281 115.234375 151.652344 116.226562 C 150.816406 117.222656 149.53125 117.722656 147.796875 117.722656 L 142.382812 117.722656 L 142.382812 125 L 140.050781 125 Z M 150.550781 112.730469 C 150.550781 111.464844 150.082031 110.605469 149.144531 110.152344 C 148.628906 109.910156 147.921875 109.789062 147.023438 109.789062 L 142.382812 109.789062 L 142.382812 115.753906 L 147.023438 115.753906 C 148.070312 115.753906 148.921875 115.53125 149.570312 115.085938 C 150.222656 114.640625 150.550781 113.855469 150.550781 112.730469 Z M 155.777344 107.785156 L 159.117188 107.785156 L 164.0625 122.339844 L 168.972656 107.785156 L 172.277344 107.785156 L 172.277344 125 L 170.0625 125 L 170.0625 114.839844 C 170.0625 114.488281 170.070312 113.90625 170.085938 113.09375 C 170.101562 112.28125 170.109375 111.410156 170.109375 110.480469 L 165.199219 125 L 162.890625 125 L 157.945312 110.480469 L 157.945312 111.007812 C 157.945312 111.429688 157.953125 112.070312 157.976562 112.9375 C 157.996094 113.800781 158.003906 114.433594 158.003906 114.839844 L 158.003906 125 L 155.777344 125 Z M 126 106.519531 "/>
</svg>
