<?xml version="1.0" encoding="UTF-8"?>
<svg xmlns="http://www.w3.org/2000/svg" xmlns:xlink="http://www.w3.org/1999/xlink" width="300" height="200" viewBox="0 0 300 200">
<path fill-rule="nonzero" fill="rgb(0%, 0%, 100%)" fill-opacity="1" d="M 150 50 L 100 150 L 200 150 Z M 150 50 "/>
<path fill-rule="nonzero" fill="rgb(64.705882%, 16.470588%, 16.470588%)" fill-opacity="1" d="M 136.296875 115.0625 C 137.28125 115.0625 138.046875 114.925781 138.59375 114.652344 C 139.453125 114.222656 139.882812 113.449219 139.882812 112.332031 C 139.882812 111.207031 139.425781 110.449219 138.511719 110.058594 C 137.996094 109.839844 137.230469 109.730469 136.214844 109.730469 L 132.054688 109.730469 L 132.054688 115.0625 Z M 137.082031 123.007812 C 138.511719 123.007812 139.53125 122.59375 140.140625 121.765625 C 140.523438 121.242188 140.714844 120.609375 140.714844 119.867188 C 140.714844 118.617188 140.15625 117.765625 139.039062 117.3125 C 138.445312 117.070312 137.660156 116.949219 136.683594 116.949219 L 132.054688 116.949219 L 132.054688 123.007812 Z M 129.769531 107.785156 L 137.164062 107.785156 C 139.179688 107.785156 140.613281 108.386719 141.464844 109.589844 C 141.964844 110.300781 142.214844 111.121094 142.214844 112.050781 C 142.214844 113.136719 141.90625 114.027344 141.289062 114.722656 C 140.96875 115.089844 140.507812 115.425781 139.90625 115.730469 C 140.789062 116.066406 141.449219 116.445312 141.886719 116.867188 C 142.660156 117.617188 143.046875 118.652344 143.046875 119.972656 C 143.046875 121.082031 142.699219 122.085938 142.003906 122.984375 C 140.964844 124.328125 139.3125 125 137.046875 125 L 129.769531 125 Z M 154.671875 117.945312 L 152.058594 110.339844 L 149.28125 117.945312 Z M 150.839844 107.785156 L 153.476562 107.785156 L 159.722656 125 L 157.167969 125 L 155.421875 119.84375 L 148.613281 119.84375 L 146.75 125 L 144.359375 125 Z M 172.601562 107.785156 L 172.601562 109.835938 L 166.800781 109.835938 L 166.800781 125 L 164.433594 125 L 164.433594 109.835938 L 158.632812 109.835938 L 158.632812 107.785156 Z M 128 106.519531 "/>
</svg>
