<?xml version="1.0" encoding="UTF-8"?>
<svg xmlns="http://www.w3.org/2000/svg" xmlns:xlink="http://www.w3.org/1999/xlink" width="300" height="200" viewBox="0 0 300 200">
<path fill-rule="nonzero" fill="rgb(100%, 0%, 0%)" fill-opacity="1" d="M 100 50 L 200 50 L 200 150 L 100 150 Z M 100 50 "/>
<path fill-rule="nonzero" fill="rgb(50.196078%, 0%, 50.196078%)" fill-opacity="1" d="M 128.828125 107.785156 L 131.160156 107.785156 L 131.160156 122.949219 L 139.878906 122.949219 L 139.878906 125 L 128.828125 125 Z M 149.605469 107.316406 C 152.644531 107.316406 154.894531 108.292969 156.355469 110.246094 C 157.496094 111.769531 158.066406 113.71875 158.066406 116.09375 C 158.066406 118.664062 157.414062 120.800781 156.109375 122.503906 C 154.578125 124.503906 152.394531 125.503906 149.558594 125.503906 C 146.910156 125.503906 144.828125 124.628906 143.3125 122.878906 C 141.960938 121.191406 141.285156 119.058594 141.285156 116.480469 C 141.285156 114.152344 141.863281 112.160156 143.019531 110.503906 C 144.503906 108.378906 146.699219 107.316406 149.605469 107.316406 Z M 149.839844 123.417969 C 151.894531 123.417969 153.378906 122.679688 154.300781 121.210938 C 155.21875 119.738281 155.675781 118.042969 155.675781 116.128906 C 155.675781 114.105469 155.144531 112.476562 154.089844 111.242188 C 153.03125 110.007812 151.582031 109.390625 149.746094 109.390625 C 147.964844 109.390625 146.511719 110 145.386719 111.226562 C 144.261719 112.449219 143.699219 114.25 143.699219 116.632812 C 143.699219 118.539062 144.183594 120.148438 145.144531 121.453125 C 146.109375 122.761719 147.675781 123.417969 149.839844 123.417969 Z M 160.84375 107.785156 L 163.175781 107.785156 L 163.175781 122.949219 L 171.894531 122.949219 L 171.894531 125 L 160.84375 125 Z M 127 106.519531 "/>
</svg>
